name rise38.3101peak57.3503fall81.6963.mot
datacolumns 19
datarows 20
range 20.12159800000000 20.15326100000000
endheader
time	ground_force1_vx	ground_force1_vy	ground_force1_vz	ground_force1_px	ground_force1_py	ground_force1_pz	ground_force2_vx	ground_force2_vy	ground_force2_vz	ground_force2_px	ground_force2_py	ground_force2_pz	ground_torque1_x	ground_torque1_y	ground_torque1_z	ground_torque2_x	ground_torque2_y	ground_torque2_z	
20.12159800000000	-13.69184700000000	40.88246100000000	-11.96130800000000	0.32777300000000	0.00000000000000	0.08646900000000	-51.55797300000000	776.81456300000002	-57.09358200000000	0.12689200000000	0.00000000000000	-0.10240000000000	0.00000000000000	-7.48653300000000	0.00000000000000	0.00000000000000	-24.25171000000000	0.00000000000000	
20.12326300000000	-15.04292700000000	47.94909100000000	-13.47504200000000	0.33220900000000	0.00000000000000	0.08779500000000	-51.85655200000000	773.29607699999997	-56.64273400000000	0.12628300000000	0.00000000000000	-0.10225000000000	0.00000000000000	-8.53676400000000	0.00000000000000	0.00000000000000	-24.12769700000000	0.00000000000000	
20.12492600000000	-16.14712600000000	55.11923900000000	-14.85933700000000	0.33632100000000	0.00000000000000	0.08899700000000	-52.16062500000000	769.68291199999999	-56.16815000000000	0.12567800000000	0.00000000000000	-0.10209600000000	0.00000000000000	-9.52994500000000	0.00000000000000	0.00000000000000	-24.00234800000000	0.00000000000000	
20.12659300000000	-16.96929100000000	62.30393800000000	-16.08257100000000	0.34015000000000	0.00000000000000	0.09009500000000	-52.47048000000000	765.97572600000001	-55.66975000000000	0.12507700000000	0.00000000000000	-0.10193500000000	0.00000000000000	-10.44502300000000	0.00000000000000	0.00000000000000	-23.87576300000000	0.00000000000000	
20.12826100000000	-17.48941800000000	69.43660100000000	-17.12359300000000	0.34373100000000	0.00000000000000	0.09110300000000	-52.78636400000000	762.17508799999996	-55.14748500000000	0.12448000000000	0.00000000000000	-0.10177000000000	0.00000000000000	-11.26693100000000	0.00000000000000	0.00000000000000	-23.74803500000000	0.00000000000000	
20.12992400000000	-17.70237400000000	76.47510300000000	-17.97188400000000	0.34709100000000	0.00000000000000	0.09203500000000	-53.10847300000000	758.28146800000002	-54.60134300000000	0.12388600000000	0.00000000000000	-0.10159800000000	0.00000000000000	-11.98688800000000	0.00000000000000	0.00000000000000	-23.61925300000000	0.00000000000000	
20.13159700000000	-17.61644900000000	83.40149099999999	-18.62683300000000	0.35025500000000	0.00000000000000	0.09290000000000	-53.43694900000000	754.29523500000005	-54.03134700000000	0.12329500000000	0.00000000000000	-0.10142200000000	0.00000000000000	-12.60212600000000	0.00000000000000	0.00000000000000	-23.48949900000000	0.00000000000000	
20.13326100000000	-17.25104800000000	90.21975100000000	-19.09631600000000	0.35324100000000	0.00000000000000	0.09370700000000	-53.77188200000000	750.21664799999996	-53.43756100000000	0.12270800000000	0.00000000000000	-0.10123900000000	0.00000000000000	-13.11517100000000	0.00000000000000	0.00000000000000	-23.35884700000000	0.00000000000000	
20.13492400000000	-16.63386400000000	96.95213800000001	-19.39483500000000	0.35606600000000	0.00000000000000	0.09446400000000	-54.11329800000000	746.04585099999997	-52.82008900000000	0.12212400000000	0.00000000000000	-0.10105200000000	0.00000000000000	-13.53281100000000	0.00000000000000	0.00000000000000	-23.22736300000000	0.00000000000000	
20.13659300000000	-15.79785300000000	103.63463299999999	-19.54143200000000	0.35874600000000	0.00000000000000	0.09517500000000	-54.46116400000000	741.78287300000000	-52.17907800000000	0.12154300000000	0.00000000000000	-0.10085900000000	0.00000000000000	-13.86488600000000	0.00000000000000	0.00000000000000	-23.09510600000000	0.00000000000000	
20.13826300000000	-14.77829300000000	110.31204800000000	-19.55759600000000	0.36129300000000	0.00000000000000	0.09584600000000	-54.81538000000000	737.42762000000005	-51.51471800000000	0.12096500000000	0.00000000000000	-0.10066000000000	0.00000000000000	-14.12304300000000	0.00000000000000	0.00000000000000	-22.96212500000000	0.00000000000000	
20.13993100000000	-13.61016100000000	117.03324800000000	-19.46533500000000	0.36371700000000	0.00000000000000	0.09648100000000	-55.17577700000000	732.97987599999999	-50.82724400000000	0.12039000000000	0.00000000000000	-0.10045600000000	0.00000000000000	-14.31954800000000	0.00000000000000	0.00000000000000	-22.82846200000000	0.00000000000000	
20.14159800000000	-12.32596200000000	123.84683400000000	-19.28553800000000	0.36602800000000	0.00000000000000	0.09708400000000	-55.54211500000000	728.43929800000001	-50.11693900000000	0.11981900000000	0.00000000000000	-0.10024600000000	0.00000000000000	-14.46625800000000	0.00000000000000	0.00000000000000	-22.69414600000000	0.00000000000000	
20.14326200000000	-10.95412900000000	130.79756200000000	-19.03670600000000	0.36823500000000	0.00000000000000	0.09765700000000	-55.91408000000000	723.80541800000003	-49.38413200000000	0.11925100000000	0.00000000000000	-0.10003100000000	0.00000000000000	-14.57379700000000	0.00000000000000	0.00000000000000	-22.55919800000000	0.00000000000000	
20.14492800000000	-9.51798700000000	137.92363499999999	-18.73408400000000	0.37034400000000	0.00000000000000	0.09820400000000	-56.29128200000000	719.07764299999997	-48.62920100000000	0.11868700000000	0.00000000000000	-0.09981100000000	0.00000000000000	-14.65096700000000	0.00000000000000	0.00000000000000	-22.42362600000000	0.00000000000000	
20.14659900000000	-8.03529400000000	145.25492700000001	-18.38919300000000	0.37236400000000	0.00000000000000	0.09872700000000	-56.67325400000000	714.25525400000004	-47.85257500000000	0.11812600000000	0.00000000000000	-0.09958600000000	0.00000000000000	-14.70440800000000	0.00000000000000	0.00000000000000	-22.28742900000000	0.00000000000000	
20.14826000000000	-6.51826000000000	152.81209600000000	-18.00972200000000	0.37429800000000	0.00000000000000	0.09922800000000	-57.05944800000000	709.33741399999997	-47.05473000000000	0.11757000000000	0.00000000000000	-0.09935500000000	0.00000000000000	-14.73847400000000	0.00000000000000	0.00000000000000	-22.15059200000000	0.00000000000000	
20.14993300000000	-4.97398100000000	160.60650400000000	-17.59973200000000	0.37615300000000	0.00000000000000	0.09970800000000	-57.44923800000000	704.32316700000001	-46.23619400000000	0.11701700000000	0.00000000000000	-0.09911900000000	0.00000000000000	-14.75530800000000	0.00000000000000	0.00000000000000	-22.01308900000000	0.00000000000000	
20.15160100000000	-3.40515800000000	168.64079100000001	-17.16009100000000	0.37793300000000	0.00000000000000	0.10016900000000	-57.84191400000000	699.21144600000002	-45.39754400000000	0.11647000000000	0.00000000000000	-0.09887800000000	0.00000000000000	-14.75507400000000	0.00000000000000	0.00000000000000	-21.87488000000000	0.00000000000000	
20.15326100000000	-1.81101400000000	176.90994400000000	-16.68906300000000	0.37964200000000	0.00000000000000	0.10061200000000	-58.23668900000000	694.00108299999999	-44.53940900000000	0.11592700000000	0.00000000000000	-0.09863200000000	0.00000000000000	-14.73629400000000	0.00000000000000	0.00000000000000	-21.73591400000000	0.00000000000000	
